# 3ds Max Wavefront OBJ Exporter v0.97b - (c)2007 guruware
# File Created: 08.07.2017 11:09:54

mtllib Platform_Five_Top_OBJ.mtl

#
# object Top
#

v  0.0000 57.5847 9.3976
v  -21.9615 57.5847 9.3976
v  -21.9615 57.5847 18.7952
v  0.0000 57.5847 18.7952
v  0.0000 48.4739 57.7570
v  0.0000 53.3821 57.7570
v  -32.0447 53.3821 57.7570
v  -32.0448 27.4714 57.7570
v  64.0895 44.5526 28.8785
v  64.0895 35.9757 17.9483
v  64.0895 53.3821 14.4392
v  64.0895 53.3821 28.8785
v  32.0448 45.7973 -52.9990
v  9.3995 41.1432 -52.9990
v  16.0224 53.3821 -57.0947
v  32.0448 53.3821 -57.1017
v  -67.2364 42.9640 -17.5308
v  -64.1136 53.3821 -14.4393
v  -63.8405 53.3821 -28.8785
v  -63.6899 23.6800 -21.4791
v  21.9615 57.5847 37.5904
v  10.9807 57.5847 37.5904
v  13.5016 57.5847 47.6737
v  27.0031 57.5847 47.6737
v  -43.9230 57.5847 18.7952
v  -43.9230 57.5847 9.3976
v  -54.0062 57.5847 11.9184
v  -54.0062 57.5847 23.8369
v  -21.9615 57.5847 -37.5904
v  0.0000 57.5847 -37.5904
v  0.0000 57.5847 -47.6737
v  -27.0031 57.5847 -47.6737
v  43.9230 57.5847 -18.7952
v  43.9230 57.5847 -9.3976
v  54.0062 57.5847 -11.9184
v  54.0062 57.5847 -23.8369
v  -54.0062 50.0000 -23.8369
v  -54.0062 50.0000 -11.9184
v  -27.0031 50.0000 47.6737
v  0.0000 50.0000 47.6737
v  54.0062 50.0000 11.9184
v  54.0062 50.0000 23.8369
v  13.5016 50.0000 -47.6737
v  27.0031 50.0000 -47.6737
v  16.0224 53.3821 57.7570
v  32.0448 53.3821 57.7570
v  -64.0895 53.3821 14.4392
v  -64.0895 53.3821 28.8785
v  0.0000 53.3821 -57.2259
v  -32.0448 53.3821 -57.2259
v  64.0895 53.3821 -14.4392
v  64.0895 53.3821 -28.8785
v  43.9230 57.5847 9.3976
v  21.9615 57.5847 9.3976
v  21.9615 57.5847 18.7952
v  43.9230 57.5847 18.7952
v  10.9807 57.5847 9.3976
v  10.9807 57.5847 18.7952
v  -43.9230 57.5847 -9.3976
v  -21.9615 57.5847 -9.3976
v  -21.9615 57.5847 -18.7952
v  -43.9230 57.5847 -18.7952
v  64.0895 49.0231 57.7570
v  64.0895 53.3821 57.7570
v  32.0448 23.1635 57.7570
v  16.0224 35.8187 57.7570
v  -64.0895 53.3821 57.7570
v  -64.0895 39.0780 57.7570
v  -62.6655 49.5018 -57.7570
v  -62.6655 53.3821 -57.7570
v  -32.0448 48.6298 -57.2259
v  -14.3730 25.7086 -49.1160
v  64.0895 53.3821 -57.7570
v  59.0423 28.3710 -46.5817
v  -43.9230 57.5847 37.5904
v  -54.0062 57.5847 47.6737
v  -27.0031 57.5847 47.6737
v  -21.9615 57.5847 37.5904
v  0.0000 57.5847 47.6737
v  0.0000 57.5847 37.5904
v  54.0062 57.5847 47.6737
v  43.9230 57.5847 37.5904
v  43.9230 57.5847 -37.5904
v  54.0062 57.5847 -47.6737
v  27.0031 57.5847 -47.6737
v  21.9615 57.5847 -37.5904
v  10.9807 57.5847 -37.5904
v  13.5016 57.5847 -47.6737
v  -54.0062 57.5847 -47.6737
v  -43.9230 57.5847 -37.5904
v  54.0062 50.0000 47.6737
v  27.0031 50.0000 47.6737
v  13.5016 50.0000 47.6737
v  -54.0062 50.0000 47.6737
v  -54.0062 50.0000 -47.6737
v  -27.0031 50.0000 -47.6737
v  0.0000 50.0000 -47.6737
v  54.0062 50.0000 -47.6737
v  0.0000 57.5847 -18.7952
v  0.0000 57.5847 -9.3976
v  -21.9615 57.5847 -0.0000
v  0.0000 57.5847 -0.0000
v  64.0895 49.1887 -28.8785
v  64.0895 38.2938 -10.9302
v  64.0895 53.3821 -0.0000
v  55.8126 27.3989 7.0181
v  -57.5673 23.3034 15.6520
v  -64.0895 45.6059 -0.0000
v  -64.0895 36.7938 13.7881
v  -64.0895 53.3821 -0.0000
v  -54.0062 57.5847 -23.8369
v  -54.0062 57.5847 -11.9184
v  -54.0062 57.5847 -0.0000
v  -43.9230 57.5847 -0.0000
v  54.0062 57.5847 23.8369
v  54.0062 57.5847 11.9184
v  54.0062 57.5847 -0.0000
v  43.9230 57.5847 -0.0000
v  -54.0062 50.0000 23.8369
v  -54.0062 50.0000 11.9184
v  -54.0062 50.0000 -0.0000
v  54.0062 50.0000 -23.8369
v  54.0062 50.0000 -0.0000
v  54.0062 50.0000 -11.9184
v  21.9615 57.5847 -18.7952
v  21.9615 57.5847 -9.3976
v  21.9615 57.5847 -0.0000
v  10.9807 57.5847 -18.7952
v  10.9807 57.5847 -9.3976
v  10.9807 57.5847 -0.0000
# 130 vertices

vn 0.0000 1.0000 -0.0000
vn 0.0000 0.0000 1.0000
vn -0.0000 0.0000 1.0000
vn 1.0000 0.0000 -0.0000
vn 0.9637 -0.1564 -0.2163
vn -0.0010 -0.3173 -0.9483
vn 0.0414 -0.2291 -0.9725
vn 0.0340 -0.2659 -0.9634
vn -0.0098 -0.3546 -0.9349
vn -0.9840 0.0538 -0.1697
vn -0.9870 0.1551 0.0416
vn -0.9951 0.0450 -0.0876
vn -0.9869 -0.0305 -0.1583
vn 0.6019 -0.3394 0.7228
vn 0.2624 -0.5174 -0.8145
vn -0.8274 -0.4952 0.2651
vn 0.0902 -0.4910 0.8665
vn 0.0000 0.8596 0.5109
vn -0.5109 0.8596 -0.0000
vn 0.0000 0.8471 -0.5315
vn 0.5109 0.8596 -0.0000
vn 0.0173 0.0000 -0.9998
vn 0.0087 0.0000 -1.0000
vn 0.0206 -0.0673 -0.9975
vn 0.0282 -0.2074 -0.9778
vn 0.0436 -0.2163 -0.9753
vn -0.0371 -0.3082 -0.9506
vn -0.0428 -0.2932 -0.9551
vn 0.2308 -0.3696 -0.9001
vn -0.3910 -0.6397 -0.6617
vn -0.1009 -0.3601 -0.9274
vn -0.0227 -0.9884 0.1500
vn -0.2750 -0.1399 0.9512
vn -0.1902 -0.1633 0.9681
vn -0.0058 0.8500 -0.5267
vn 0.0024 0.8456 -0.5339
vn 0.0048 0.8520 -0.5235
vn 0.9915 -0.1275 -0.0259
vn 0.9901 -0.1401 -0.0000
vn 0.9979 -0.0497 -0.0416
vn 0.9891 0.0000 -0.1470
vn 0.9803 -0.0894 0.1761
vn 1.0000 0.0000 0.0000
vn 0.9971 -0.0753 0.0084
vn 0.9679 -0.2337 -0.0926
vn -0.9967 -0.0665 -0.0470
vn -1.0000 0.0000 -0.0000
vn -0.9972 -0.0745 0.0043
vn -0.9801 -0.1768 0.0901
vn -0.9988 0.0379 0.0299
vn -0.9498 -0.1683 0.2638
vn -1.0000 0.0000 0.0000
vn -1.0000 0.0000 0.0008
vn -0.9994 -0.0058 -0.0350
vn -0.9996 0.0000 -0.0282
vn 0.9556 -0.2369 0.1753
vn 0.7329 -0.6112 -0.2988
vn 0.8961 -0.3852 -0.2207
vn -0.8060 -0.4309 0.4059
vn -0.8791 -0.2771 -0.3878
vn -0.4758 -0.8732 0.1056
vn -0.5369 0.8435 -0.0120
vn -0.5105 0.8599 0.0005
vn -0.9140 -0.1106 0.3903
vn 0.8123 -0.1317 -0.5682
vn 0.5651 -0.8238 0.0450
vn -0.6598 -0.6667 -0.3468
vn -0.5137 0.8580 -0.0053
vn 0.2321 -0.2262 0.9460
vn -0.2095 -0.3428 -0.9157
vn -0.0001 0.8438 -0.5366
# 71 vertex normals

vt 0.2113 0.2221 0.0000
vt 0.2890 0.2221 0.0000
vt 0.2890 0.2554 0.0000
vt 0.2113 0.2554 0.0000
vt 0.2470 0.4505 0.0000
vt 0.2470 0.4257 0.0000
vt 0.3605 0.4257 0.0000
vt 0.3605 0.5566 0.0000
vt 0.8276 0.4703 0.0000
vt 0.7889 0.5137 0.0000
vt 0.7765 0.4257 0.0000
vt 0.8276 0.4257 0.0000
vt 0.7848 0.0795 0.0000
vt 0.7046 0.1030 0.0000
vt 0.7281 0.0412 0.0000
vt 0.7848 0.0412 0.0000
vt 0.2866 0.6990 0.0000
vt 0.2757 0.6464 0.0000
vt 0.3268 0.6464 0.0000
vt 0.3006 0.7964 0.0000
vt 0.1335 0.3220 0.0000
vt 0.1724 0.3220 0.0000
vt 0.1634 0.3577 0.0000
vt 0.1156 0.3577 0.0000
vt 0.3668 0.2554 0.0000
vt 0.3668 0.2221 0.0000
vt 0.4025 0.2310 0.0000
vt 0.4025 0.2733 0.0000
vt 0.2890 0.0557 0.0000
vt 0.2113 0.0557 0.0000
vt 0.2113 0.0200 0.0000
vt 0.3069 0.0200 0.0000
vt 0.0557 0.1223 0.0000
vt 0.0557 0.1556 0.0000
vt 0.0200 0.1466 0.0000
vt 0.0200 0.1044 0.0000
vt 0.1401 0.8452 0.0000
vt 0.1823 0.8452 0.0000
vt 0.1625 0.8807 0.0000
vt 0.1485 0.9781 0.0000
vt 0.6073 0.6252 0.0000
vt 0.7029 0.6252 0.0000
vt 0.7029 0.6329 0.0000
vt 0.5894 0.7390 0.0000
vt 0.5360 0.8076 0.0000
vt 0.5147 0.8784 0.0000
vt 0.4759 0.8351 0.0000
vt 0.4938 0.8076 0.0000
vt 0.6107 0.2278 0.0000
vt 0.6252 0.2726 0.0000
vt 0.5450 0.2491 0.0000
vt 0.5628 0.2278 0.0000
vt 0.1513 0.4045 0.0000
vt 0.1992 0.4045 0.0000
vt 0.1902 0.4257 0.0000
vt 0.1335 0.4257 0.0000
vt 0.1401 0.6252 0.0000
vt 0.1823 0.6252 0.0000
vt 0.1734 0.6464 0.0000
vt 0.1223 0.6464 0.0000
vt 0.5757 0.0200 0.0000
vt 0.6713 0.0200 0.0000
vt 0.6713 0.0412 0.0000
vt 0.5578 0.0412 0.0000
vt 0.6409 0.4045 0.0000
vt 0.6831 0.4045 0.0000
vt 0.6742 0.4257 0.0000
vt 0.6231 0.4257 0.0000
vt 0.0557 0.2221 0.0000
vt 0.1335 0.2221 0.0000
vt 0.1335 0.2554 0.0000
vt 0.0557 0.2554 0.0000
vt 0.1724 0.2221 0.0000
vt 0.1724 0.2554 0.0000
vt 0.3668 0.1556 0.0000
vt 0.2890 0.1556 0.0000
vt 0.2890 0.1223 0.0000
vt 0.3668 0.1223 0.0000
vt 0.0200 0.4478 0.0000
vt 0.0200 0.4257 0.0000
vt 0.1335 0.5784 0.0000
vt 0.1902 0.5144 0.0000
vt 0.4740 0.4257 0.0000
vt 0.4740 0.4980 0.0000
vt 0.4494 0.0608 0.0000
vt 0.4494 0.0412 0.0000
vt 0.5578 0.0652 0.0000
vt 0.6204 0.1810 0.0000
vt 0.8983 0.0412 0.0000
vt 0.8804 0.1675 0.0000
vt 0.3668 0.3220 0.0000
vt 0.4025 0.3577 0.0000
vt 0.3069 0.3577 0.0000
vt 0.2890 0.3220 0.0000
vt 0.2113 0.3577 0.0000
vt 0.2113 0.3220 0.0000
vt 0.0200 0.3577 0.0000
vt 0.0557 0.3220 0.0000
vt 0.0557 0.0557 0.0000
vt 0.0200 0.0200 0.0000
vt 0.1156 0.0200 0.0000
vt 0.1335 0.0557 0.0000
vt 0.1724 0.0557 0.0000
vt 0.1634 0.0200 0.0000
vt 0.4025 0.0200 0.0000
vt 0.3668 0.0557 0.0000
vt 0.8942 0.6252 0.0000
vt 0.9299 0.6301 0.0000
vt 0.8164 0.7607 0.0000
vt 0.7986 0.6252 0.0000
vt 0.7507 0.6252 0.0000
vt 0.7597 0.6968 0.0000
vt 0.4759 0.6804 0.0000
vt 0.5117 0.6252 0.0000
vt 0.9144 0.2278 0.0000
vt 0.9451 0.2635 0.0000
vt 0.8367 0.2617 0.0000
vt 0.8188 0.2278 0.0000
vt 0.7541 0.2278 0.0000
vt 0.7720 0.2347 0.0000
vt 0.7094 0.3505 0.0000
vt 0.6585 0.2278 0.0000
vt 0.4494 0.3371 0.0000
vt 0.4672 0.2278 0.0000
vt 0.4382 0.4045 0.0000
vt 0.3426 0.4045 0.0000
vt 0.2470 0.4045 0.0000
vt 0.0557 0.4045 0.0000
vt 0.8626 0.0200 0.0000
vt 0.7669 0.0200 0.0000
vt 0.7191 0.0200 0.0000
vt 0.4800 0.0200 0.0000
vt 0.2113 0.1223 0.0000
vt 0.2113 0.1556 0.0000
vt 0.2890 0.1888 0.0000
vt 0.2113 0.1888 0.0000
vt 0.5604 0.5521 0.0000
vt 0.5208 0.4257 0.0000
vt 0.6231 0.4469 0.0000
vt 0.6866 0.5019 0.0000
vt 0.7253 0.4257 0.0000
vt 0.7502 0.5570 0.0000
vt 0.9299 0.4257 0.0000
vt 0.9299 0.4478 0.0000
vt 0.0200 0.7187 0.0000
vt 0.0200 0.6464 0.0000
vt 0.1691 0.7983 0.0000
vt 0.2246 0.6857 0.0000
vt 0.1757 0.7302 0.0000
vt 0.2246 0.6464 0.0000
vt 0.4291 0.6464 0.0000
vt 0.4291 0.6660 0.0000
vt 0.4025 0.1044 0.0000
vt 0.4025 0.1466 0.0000
vt 0.4025 0.1888 0.0000
vt 0.3668 0.1888 0.0000
vt 0.0200 0.2733 0.0000
vt 0.0200 0.2310 0.0000
vt 0.0200 0.1888 0.0000
vt 0.0557 0.1888 0.0000
vt 0.3934 0.8452 0.0000
vt 0.4291 0.9003 0.0000
vt 0.2800 0.9800 0.0000
vt 0.3090 0.8452 0.0000
vt 0.2668 0.8452 0.0000
vt 0.2734 0.9119 0.0000
vt 0.2246 0.8674 0.0000
vt 0.2246 0.8452 0.0000
vt 0.0200 0.8477 0.0000
vt 0.0557 0.8452 0.0000
vt 0.7471 0.8076 0.0000
vt 0.7432 0.9168 0.0000
vt 0.6805 0.8117 0.0000
vt 0.6626 0.8076 0.0000
vt 0.5782 0.8076 0.0000
vt 0.6204 0.8076 0.0000
vt 0.6169 0.8667 0.0000
vt 0.5534 0.9217 0.0000
vt 0.8118 0.8076 0.0000
vt 0.9140 0.8076 0.0000
vt 0.8783 0.8433 0.0000
vt 0.7939 0.8433 0.0000
vt 0.3934 0.6252 0.0000
vt 0.3090 0.6252 0.0000
vt 0.2668 0.6252 0.0000
vt 0.2246 0.6252 0.0000
vt 0.0557 0.6252 0.0000
vt 0.8942 0.4045 0.0000
vt 0.8098 0.4045 0.0000
vt 0.7676 0.4045 0.0000
vt 0.7253 0.4045 0.0000
vt 0.5565 0.4045 0.0000
vt 0.1335 0.1223 0.0000
vt 0.1335 0.1556 0.0000
vt 0.1335 0.1888 0.0000
vt 0.1724 0.1223 0.0000
vt 0.1724 0.1556 0.0000
vt 0.1724 0.1888 0.0000
# 198 texture coords

g Top
usemtl wire_177027088
s 4
f 1/1/1 2/2/1 3/3/1 4/4/1 
s 8
f 5/5/2 6/6/2 7/7/3 8/8/3 
s 16
f 9/9/4 10/10/5 11/11/4 12/12/4 
s 32
f 13/13/6 14/14/7 15/15/8 16/16/9 
s 64
f 17/17/10 18/18/11 19/19/12 20/20/13 
s off
f 21/21/1 22/22/1 23/23/1 24/24/1 
f 25/25/1 26/26/1 27/27/1 28/28/1 
f 29/29/1 30/30/1 31/31/1 32/32/1 
f 33/33/1 34/34/1 35/35/1 36/36/1 
f 37/37/14 38/38/14 17/39/14 20/40/14 
f 39/41/15 40/42/15 5/43/15 8/44/15 
f 41/45/16 10/46/16 9/47/16 42/48/16 
f 43/49/17 14/50/17 13/51/17 44/52/17 
f 24/53/18 23/54/18 45/55/18 46/56/18 
f 28/57/19 27/58/19 47/59/19 48/60/19 
f 32/61/20 31/62/20 49/63/20 50/64/20 
f 36/65/21 35/66/21 51/67/21 52/68/21 
s 4
f 53/69/1 54/70/1 55/71/1 56/72/1 
f 54/70/1 57/73/1 58/74/1 55/71/1 
f 59/75/1 60/76/1 61/77/1 62/78/1 
s 8
f 63/79/3 64/80/2 46/56/3 65/81/3 
f 5/5/2 66/82/2 45/55/2 6/6/2 
f 67/83/2 68/84/2 8/8/3 7/7/3 
s 32
f 69/85/22 70/86/22 50/64/23 71/87/24 
f 71/87/24 50/64/23 49/63/25 72/88/26 
f 73/89/27 74/90/28 13/13/6 16/16/9 
s off
f 75/91/1 76/92/1 77/93/1 78/94/1 
f 78/94/1 77/93/1 79/95/1 80/96/1 
f 24/24/1 81/97/1 82/98/1 21/21/1 
f 83/99/1 84/100/1 85/101/1 86/102/1 
f 87/103/1 88/104/1 31/31/1 30/30/1 
f 32/32/1 89/105/1 90/106/1 29/29/1 
f 91/107/29 63/108/29 65/109/29 92/110/29 
f 93/111/30 66/112/30 5/43/30 40/42/30 
f 8/44/31 68/113/31 94/114/31 39/41/31 
f 95/115/32 69/116/32 71/117/32 96/118/32 
f 96/119/33 71/120/33 72/121/33 97/122/33 
f 13/51/34 74/123/34 98/124/34 44/52/34 
f 76/125/18 67/83/18 7/7/18 77/126/18 
f 77/126/18 7/7/18 6/6/18 79/127/18 
f 46/56/18 64/80/18 81/128/18 24/53/18 
f 84/129/35 73/89/35 16/16/35 85/130/35 
f 88/131/36 15/15/36 49/63/36 31/62/36 
f 50/64/37 70/86/37 89/132/37 32/61/37 
s 4
f 30/30/1 29/29/1 61/77/1 99/133/1 
f 100/134/1 60/76/1 101/135/1 102/136/1 
f 78/94/1 80/96/1 4/4/1 3/3/1 
s 16
f 74/137/38 73/138/39 52/68/40 103/139/41 
f 104/140/42 51/67/43 105/141/44 106/142/45 
f 64/143/4 63/144/4 9/9/4 12/12/4 
s 64
f 68/145/46 67/146/47 48/60/48 107/147/49 
f 108/148/50 109/149/51 47/59/52 110/150/53 
f 70/151/54 69/152/55 20/20/13 19/19/12 
s off
f 90/106/1 89/105/1 111/153/1 62/78/1 
f 59/75/1 112/154/1 113/155/1 114/156/1 
f 28/28/1 76/92/1 75/91/1 25/25/1 
f 82/98/1 81/97/1 115/157/1 56/72/1 
f 53/69/1 116/158/1 117/159/1 118/160/1 
f 36/36/1 84/100/1 83/99/1 33/33/1 
f 94/161/56 68/162/56 107/163/56 119/164/56 
f 120/165/57 109/166/57 108/167/57 121/168/57 
f 20/40/58 69/169/58 95/170/58 37/37/58 
f 98/171/59 74/172/59 103/173/59 122/174/59 
f 123/175/60 124/176/60 104/177/60 106/178/60 
f 9/179/61 63/180/61 91/181/61 42/182/61 
f 89/183/62 70/151/62 19/19/62 111/184/62 
f 112/185/63 18/18/63 110/150/63 113/186/63 
f 48/60/19 67/146/19 76/187/19 28/57/19 
f 81/188/21 64/143/21 12/12/21 115/189/21 
f 116/190/21 11/11/21 105/141/21 117/191/21 
f 52/68/21 73/138/21 84/192/21 36/65/21 
s 4
f 83/99/1 86/102/1 125/193/1 33/33/1 
f 34/34/1 126/194/1 127/195/1 118/160/1 
f 21/21/1 82/98/1 56/72/1 55/71/1 
f 86/102/1 87/103/1 128/196/1 125/193/1 
f 126/194/1 129/197/1 130/198/1 127/195/1 
f 80/96/1 22/22/1 58/74/1 4/4/1 
f 75/91/1 78/94/1 3/3/1 25/25/1 
f 26/26/1 2/2/1 101/135/1 114/156/1 
f 29/29/1 90/106/1 62/78/1 61/77/1 
f 102/136/1 101/135/1 2/2/1 1/1/1 
s 16
f 10/10/5 106/142/45 105/141/44 11/11/4 
s off
f 26/26/1 114/156/1 113/155/1 27/27/1 
f 123/175/64 106/178/64 10/46/64 41/45/64 
f 27/58/19 113/186/19 110/150/19 47/59/19 
s 4
f 118/160/1 127/195/1 54/70/1 53/69/1 
f 127/195/1 130/198/1 57/73/1 54/70/1 
s 64
f 109/149/51 107/147/49 48/60/48 47/59/52 
s off
f 56/72/1 115/157/1 116/158/1 53/69/1 
f 119/164/65 107/163/65 109/166/65 120/165/65 
f 115/189/21 12/12/21 11/11/21 116/190/21 
s 4
f 25/25/1 3/3/1 2/2/1 26/26/1 
s 64
f 108/148/50 110/150/53 18/18/11 17/17/10 
s off
f 34/34/1 118/160/1 117/159/1 35/35/1 
f 38/38/66 121/168/66 108/167/66 17/39/66 
f 35/66/21 117/191/21 105/141/21 51/67/21 
s 4
f 114/156/1 101/135/1 60/76/1 59/75/1 
f 99/133/1 61/77/1 60/76/1 100/134/1 
s 16
f 103/139/41 52/68/40 51/67/43 104/140/42 
s off
f 62/78/1 111/153/1 112/154/1 59/75/1 
f 124/176/67 122/174/67 103/173/67 104/177/67 
f 111/184/68 19/19/68 18/18/68 112/185/68 
s 4
f 33/33/1 125/193/1 126/194/1 34/34/1 
f 125/193/1 128/196/1 129/197/1 126/194/1 
s 32
f 14/14/7 72/88/26 49/63/25 15/15/8 
s off
f 22/22/1 80/96/1 79/95/1 23/23/1 
f 97/122/69 72/121/69 14/50/69 43/49/69 
f 23/54/18 79/127/18 6/6/18 45/55/18 
s 4
f 1/1/1 4/4/1 58/74/1 57/73/1 
s 8
f 66/82/2 65/81/3 46/56/3 45/55/2 
s off
f 86/102/1 85/101/1 88/104/1 87/103/1 
f 92/110/70 65/109/70 66/112/70 93/111/70 
f 85/130/71 16/16/71 15/15/71 88/131/71 
s 4
f 30/30/1 99/133/1 128/196/1 87/103/1 
f 100/134/1 102/136/1 130/198/1 129/197/1 
f 21/21/1 55/71/1 58/74/1 22/22/1 
f 102/136/1 1/1/1 57/73/1 130/198/1 
f 99/133/1 100/134/1 129/197/1 128/196/1 
# 118 polygons

