# 3ds Max Wavefront OBJ Exporter v0.97b - (c)2007 guruware
# File Created: 08.07.2017 11:10:21

mtllib Platform_Five_Bottom_OBJ.mtl

#
# object Box001
#

v  0.9595 -14.8813 -0.2524
v  -0.2985 -14.9789 -0.2524
v  -0.2985 -14.9789 -0.6260
v  0.9595 -14.8813 -0.6260
v  -38.9069 40.0000 -18.7952
v  -43.9230 40.0000 -9.3976
v  -54.0062 40.0000 -11.9184
v  -54.0062 40.0000 -23.8369
v  -21.9615 40.0000 37.5904
v  0.0000 40.0000 37.5904
v  0.0000 33.0146 47.6737
v  -27.0031 40.0000 47.6737
v  43.9230 40.0000 18.7952
v  41.5241 40.0000 9.3976
v  54.0062 40.0000 11.9184
v  54.0062 40.0000 23.8369
v  20.0102 40.0000 -37.5904
v  10.9807 40.0000 -37.5904
v  13.5016 40.0000 -47.6737
v  27.0031 33.7518 -47.6737
v  -54.0062 50.0000 11.9184
v  -54.0062 40.0000 11.9184
v  -54.0062 40.0000 23.8369
v  -54.0062 50.0000 23.8369
v  0.0000 50.0000 -47.6737
v  0.0000 40.0000 -47.6737
v  -27.0031 40.0000 -47.6737
v  -27.0031 50.0000 -47.6737
v  54.0062 50.0000 -11.9184
v  54.0062 40.0000 -11.9184
v  54.0062 28.4133 -23.8369
v  54.0062 50.0000 -23.8369
v  13.5016 50.0000 47.6737
v  13.5016 40.0000 47.6737
v  27.0031 40.0000 47.6737
v  27.0031 50.0000 47.6737
v  22.1589 0.9427 -0.8585
v  21.2830 0.8669 -0.9900
v  21.1969 0.8611 -1.5451
v  22.6113 0.9342 -1.4986
v  11.0748 15.1370 -4.0779
v  5.8747 14.8699 -4.0779
v  5.8747 14.8699 -8.1559
v  11.0748 15.1370 -8.1559
v  -1.2503 -15.0278 0.4946
v  -0.2985 -14.9789 0.4946
v  -0.2985 -14.9789 0.8681
v  -1.2503 -15.0278 0.8681
v  43.9230 40.0000 34.9078
v  54.0062 33.0776 39.2044
v  21.9615 40.0000 34.9078
v  10.9807 40.0000 37.5904
v  -54.0062 32.0225 47.6737
v  -40.7930 40.0000 37.5904
v  -38.9069 40.0000 -33.7096
v  -54.0062 31.6185 -47.6737
v  -21.9615 40.0000 -33.7096
v  0.0000 40.0000 -37.5904
v  54.0062 40.0000 -47.6737
v  41.9717 40.0000 -37.5904
v  54.0062 50.0000 -47.6737
v  27.0031 50.0000 -47.6737
v  13.5016 50.0000 -47.6737
v  -54.0062 50.0000 -47.6737
v  -54.0062 50.0000 47.6737
v  -27.0031 50.0000 47.6737
v  0.0000 50.0000 47.6737
v  54.0062 50.0000 47.6737
v  0.9228 -14.8908 1.6151
v  -0.2985 -14.9789 1.6151
v  0.9595 -14.8813 0.8681
v  0.9595 -14.8813 0.4946
v  -0.2985 -14.9789 0.1211
v  0.9595 -14.8813 0.1211
v  -0.2985 -14.9789 -1.1416
v  0.9477 -14.8844 -1.3730
v  -40.7930 40.0000 18.7952
v  -43.9230 40.0000 9.3976
v  -54.0062 32.5113 -0.0000
v  -43.9230 40.0000 -0.0000
v  41.9717 40.0000 -18.7952
v  43.9230 40.0000 -9.3976
v  54.0062 40.0000 -0.0000
v  41.5241 40.0000 -0.0000
v  -54.0062 50.0000 -23.8369
v  -54.0062 50.0000 -11.9184
v  -54.0062 50.0000 -0.0000
v  54.0062 50.0000 23.8369
v  54.0062 50.0000 11.9184
v  54.0062 50.0000 -0.0000
v  22.6113 0.9338 1.7856
v  21.1969 0.8611 1.7856
v  21.1969 0.8611 0.6754
v  22.6113 0.9338 0.6754
v  22.6113 0.9342 0.0738
v  21.1969 0.8611 0.1202
v  21.2830 0.8669 -0.4349
v  22.1589 0.9427 -0.5663
v  21.1969 0.8611 -3.4776
v  22.6113 0.9338 -3.4776
v  11.0748 15.1370 16.3117
v  5.8747 14.8699 16.3117
v  5.8747 14.8699 8.1559
v  11.0748 15.1370 8.1559
v  11.0748 15.1370 4.0779
v  5.8747 14.8699 4.0779
v  5.8747 14.8699 -0.0000
v  11.0748 15.1370 -0.0000
v  1.8799 -14.4092 -1.0820
v  1.8799 -14.4092 -0.4805
v  -1.2503 -15.0278 -1.1416
v  -1.2503 -15.0278 -0.6260
v  -1.2503 -15.0278 -0.2524
v  -1.2503 -15.0278 0.1211
v  -1.2503 -15.0278 1.6151
v  1.8799 -14.4092 -0.1797
v  1.8799 -14.4092 0.7226
v  1.8799 -14.4092 1.3241
v  1.8799 -14.4092 0.1211
v  1.8799 -14.4092 0.4218
v  11.0748 15.1370 -22.3524
v  5.8747 14.8699 -16.3117
v  -39.8406 30.0000 -27.6151
v  -39.8406 30.0000 -15.7480
v  -24.7669 30.0000 -23.0150
v  -4.6771 30.0000 -26.8958
v  5.3678 30.0000 -31.4960
v  13.4614 30.0000 -31.4960
v  33.5512 33.1568 -31.4960
v  33.5512 33.1568 -15.7480
v  35.5025 30.0000 -7.8740
v  33.1036 30.0000 -0.0000
v  33.1036 30.0000 7.8740
v  35.5025 30.8720 15.7480
v  35.5025 30.8720 28.8133
v  15.4127 30.0000 28.8133
v  5.3678 30.0000 31.4960
v  -4.6771 30.0000 26.5758
v  -24.7669 30.0000 26.5758
v  -37.5358 30.0000 31.4960
v  -37.5358 30.0000 15.7480
v  -44.8566 30.0000 7.8740
v  -38.8235 30.0000 -0.0000
v  -38.8235 30.0000 -7.8740
v  -36.3327 18.2698 -22.0286
v  -36.3327 18.2698 -12.5828
v  -20.3020 19.0937 -17.4284
v  -4.2712 19.9176 -20.5654
v  6.0425 22.9525 -20.2642
v  12.4968 23.2842 -26.3049
v  25.4053 27.1044 -26.3049
v  25.4053 27.1044 -10.1321
v  21.4526 23.9477 -5.0660
v  21.4526 23.9477 -0.0000
v  25.4053 23.9477 5.0660
v  25.4053 24.8196 10.1321
v  25.4053 24.8196 20.2642
v  12.4968 23.2842 20.2642
v  6.0425 22.9525 20.2642
v  -4.2712 19.9176 20.2454
v  -20.3020 19.0937 20.2454
v  -32.1418 18.2698 25.1656
v  -32.1418 18.2698 12.5828
v  -36.3327 18.2698 6.2914
v  -30.2996 18.2698 -0.0000
v  -30.2996 18.2698 -6.2914
v  -28.7242 8.6340 -17.1201
v  -28.7242 8.6340 -10.1285
v  -15.8202 9.2972 -17.1201
v  -2.9162 9.9604 -20.2571
v  21.4608 15.6710 -22.3524
v  21.4608 15.6710 -8.1559
v  17.5081 15.6710 -4.0779
v  17.5081 15.6710 -0.0000
v  21.4608 15.6710 4.0779
v  21.4608 15.6710 8.1559
v  21.4608 15.6710 16.3117
v  -2.9162 9.9604 20.2571
v  -15.8202 9.2972 20.2571
v  -28.7242 8.6340 20.2571
v  -28.7242 8.6340 10.1285
v  -28.7242 8.6340 5.0643
v  -28.7242 8.6340 -0.0000
v  -28.7242 8.6340 -5.0643
# 184 vertices

vn 0.3624 -0.9320 -0.0000
vn 0.0916 -0.9958 -0.0000
vn 0.3635 -0.9316 -0.0004
vn 0.0000 -1.0000 -0.0000
vn -0.1759 -0.8645 -0.4710
vn -0.3578 -0.9048 0.2310
vn -1.0000 0.0000 -0.0000
vn 0.0000 0.0000 -1.0000
vn 1.0000 0.0000 0.0000
vn 0.0000 0.0000 1.0000
vn 0.1012 -0.9945 0.0283
vn 0.1228 -0.9924 -0.0025
vn 0.0864 -0.9962 0.0124
vn 0.0725 -0.9970 0.0272
vn 0.0730 -0.9973 -0.0000
vn 0.0730 -0.9973 0.0000
vn 0.0731 -0.9973 -0.0000
vn 0.0903 -0.9959 -0.0011
vn -0.2399 -0.9172 -0.3180
vn 0.3365 -0.8269 -0.4505
vn 0.2288 -0.9218 -0.3129
vn 0.2561 -0.9417 0.2183
vn 0.1533 -0.8423 0.5168
vn -0.0000 0.0000 1.0000
vn 0.1130 -0.2140 0.9703
vn 0.3307 -0.9437 -0.0004
vn 0.0877 -0.9961 -0.0000
vn 0.3668 -0.9303 0.0010
vn 0.0923 -0.9957 0.0007
vn 0.3523 -0.9359 0.0008
vn 0.2592 -0.9332 -0.2490
vn 0.4679 -0.7902 0.3959
vn 0.1892 -0.9383 0.2894
vn -0.6551 -0.7045 -0.2730
vn -0.3121 -0.9065 -0.2843
vn -1.0000 0.0000 0.0000
vn 1.0000 0.0000 -0.0000
vn 0.0731 -0.9973 0.0000
vn 0.0732 -0.9973 -0.0004
vn 0.0816 -0.9964 -0.0235
vn 0.0733 -0.9973 -0.0017
vn 0.1000 -0.9949 -0.0163
vn 0.1147 -0.9921 -0.0515
vn 0.0732 -0.9973 0.0002
vn 0.0731 -0.9973 0.0003
vn 0.5880 -0.8089 -0.0000
vn 0.5897 -0.8076 -0.0008
vn 0.4679 -0.7902 -0.3959
vn -0.3402 -0.7279 0.5953
vn 0.5903 -0.8072 -0.0000
vn -0.0000 0.0000 -1.0000
vn 0.5884 -0.8086 0.0024
vn 0.5829 -0.8125 -0.0000
vn -0.9979 0.0653 0.0000
vn 0.1219 -0.5153 -0.8483
vn -0.1494 -0.5679 -0.8094
vn -0.1913 -0.4458 -0.8745
vn -0.0000 -0.3930 -0.9195
vn 0.0511 -0.4771 -0.8774
vn 0.7571 -0.6533 -0.0000
vn 0.7458 -0.5839 -0.3207
vn 0.8426 -0.4850 0.2341
vn 0.8611 -0.5085 -0.0000
vn 0.8483 -0.4902 -0.2004
vn 0.8396 -0.5432 -0.0000
vn 0.0122 -0.4135 0.9104
vn 0.2194 -0.4610 0.8598
vn -0.2036 -0.4486 0.8702
vn 0.0000 -0.6113 0.7914
vn 0.1325 -0.5084 0.8509
vn -0.9749 -0.2227 -0.0000
vn -0.8458 -0.1509 0.5118
vn -0.9373 -0.1194 -0.3274
vn -0.9416 -0.3367 -0.0000
vn -0.9591 -0.1757 -0.2221
vn -0.9787 -0.2052 0.0000
vn 0.2833 -0.2505 -0.9258
vn -0.1636 -0.3878 -0.9071
vn -0.0468 -0.5845 -0.8101
vn -0.2861 -0.6124 -0.7369
vn 0.1658 -0.5498 -0.8187
vn 0.7272 -0.6864 0.0000
vn 0.4221 -0.7735 -0.4729
vn 0.5623 -0.8203 0.1042
vn 0.6680 -0.7156 -0.2041
vn 0.6938 -0.7201 0.0098
vn 0.6497 -0.7602 -0.0000
vn 0.0739 -0.7102 0.7001
vn 0.1327 -0.7111 0.6905
vn -0.0719 -0.5843 0.8083
vn 0.0126 -0.3878 0.9216
vn 0.3703 -0.2390 0.8976
vn -0.9517 -0.3069 -0.0000
vn -0.7174 -0.3812 0.5830
vn -0.7169 -0.3364 -0.6107
vn -0.8910 -0.4540 -0.0000
vn -0.8667 -0.2505 0.4314
vn -0.8748 -0.4844 0.0000
vn 0.1641 -0.1129 -0.9800
vn -0.2070 -0.0643 -0.9762
vn 0.2948 -0.1429 -0.9448
vn -0.7004 -0.1872 -0.6888
vn 0.0760 -0.2851 -0.9555
vn 0.9720 -0.2351 0.0000
vn 0.7840 -0.1567 0.6007
vn 0.9484 -0.3170 -0.0000
vn 0.7380 -0.2199 -0.6380
vn 0.9508 -0.3069 0.0417
vn 0.9572 -0.2894 -0.0000
vn 0.0396 -0.3128 0.9490
vn 0.0238 -0.3246 0.9456
vn 0.2747 -0.1332 0.9523
vn -0.0001 0.0008 1.0000
vn 0.2031 -0.1139 0.9725
vn -0.9704 -0.2414 -0.0000
vn -0.8641 -0.3894 0.3189
vn -0.8517 -0.2644 -0.4525
vn -0.9935 -0.1139 -0.0000
vn -0.8602 -0.2262 0.4570
vn 0.9955 -0.0952 -0.0000
vn 0.5812 -0.3260 0.7456
vn 0.0350 -0.4620 0.8862
vn 0.0339 -0.4621 0.8862
vn -0.7754 -0.6314 -0.0000
vn -0.7755 -0.6314 -0.0000
vn -0.7755 -0.6314 0.0000
vn 0.0299 -0.4078 -0.9126
vn -0.1690 -0.4763 -0.8629
vn 0.5834 -0.3292 -0.7425
vn -0.8954 -0.4452 -0.0000
vn 0.0488 -0.6659 -0.7444
vn 0.9985 0.0547 0.0000
vn 0.7075 0.2528 0.6599
vn 0.9763 0.2162 -0.0000
vn 0.7202 0.1725 -0.6720
vn 0.9985 0.0547 -0.0000
vn 0.0415 -0.5666 0.8230
vn -0.8952 -0.4452 -0.0174
vn -0.8938 -0.4484 -0.0000
vn -0.8961 -0.4434 0.0174
# 140 vertex normals

vt 0.8070 0.6921 0.0000
vt 0.8070 0.6965 0.0000
vt 0.8057 0.6965 0.0000
vt 0.8057 0.6921 0.0000
vt 0.3482 0.2548 0.0000
vt 0.3660 0.2216 0.0000
vt 0.4016 0.2305 0.0000
vt 0.4016 0.2726 0.0000
vt 0.2884 0.0556 0.0000
vt 0.2108 0.0556 0.0000
vt 0.2108 0.0200 0.0000
vt 0.3062 0.0200 0.0000
vt 0.0556 0.1220 0.0000
vt 0.0641 0.1552 0.0000
vt 0.0200 0.1463 0.0000
vt 0.0200 0.1042 0.0000
vt 0.1401 0.3212 0.0000
vt 0.1720 0.3212 0.0000
vt 0.1631 0.3568 0.0000
vt 0.1154 0.3568 0.0000
vt 0.5032 0.8273 0.0000
vt 0.5032 0.8777 0.0000
vt 0.4611 0.8777 0.0000
vt 0.4611 0.8273 0.0000
vt 0.5677 0.5549 0.0000
vt 0.5677 0.6052 0.0000
vt 0.4723 0.6052 0.0000
vt 0.4723 0.5549 0.0000
vt 0.5032 0.4015 0.0000
vt 0.5032 0.4519 0.0000
vt 0.4611 0.5102 0.0000
vt 0.4611 0.4015 0.0000
vt 0.5200 0.6921 0.0000
vt 0.5200 0.7425 0.0000
vt 0.4723 0.7425 0.0000
vt 0.4723 0.6921 0.0000
vt 0.4555 0.3309 0.0000
vt 0.4550 0.3340 0.0000
vt 0.4530 0.3343 0.0000
vt 0.4532 0.3293 0.0000
vt 0.8676 0.5549 0.0000
vt 0.8676 0.5732 0.0000
vt 0.8532 0.5732 0.0000
vt 0.8532 0.5549 0.0000
vt 0.8097 0.6999 0.0000
vt 0.8097 0.6965 0.0000
vt 0.8110 0.6965 0.0000
vt 0.8110 0.6999 0.0000
vt 0.0556 0.0651 0.0000
vt 0.0200 0.0499 0.0000
vt 0.1154 0.0200 0.0000
vt 0.1332 0.0651 0.0000
vt 0.1720 0.0556 0.0000
vt 0.1631 0.0200 0.0000
vt 0.4016 0.0200 0.0000
vt 0.3549 0.0556 0.0000
vt 0.3482 0.3075 0.0000
vt 0.4016 0.3568 0.0000
vt 0.3062 0.3568 0.0000
vt 0.2884 0.3075 0.0000
vt 0.2108 0.3568 0.0000
vt 0.2108 0.3212 0.0000
vt 0.0200 0.3568 0.0000
vt 0.0625 0.3212 0.0000
vt 0.7585 0.5549 0.0000
vt 0.7585 0.6052 0.0000
vt 0.6631 0.6367 0.0000
vt 0.6631 0.5549 0.0000
vt 0.6154 0.5549 0.0000
vt 0.6154 0.6052 0.0000
vt 0.3769 0.6475 0.0000
vt 0.3769 0.5549 0.0000
vt 0.7585 0.6921 0.0000
vt 0.7585 0.7827 0.0000
vt 0.6631 0.7425 0.0000
vt 0.6631 0.6921 0.0000
vt 0.5677 0.7777 0.0000
vt 0.5677 0.6921 0.0000
vt 0.3769 0.7773 0.0000
vt 0.3769 0.6921 0.0000
vt 0.8136 0.6922 0.0000
vt 0.8136 0.6965 0.0000
vt 0.8110 0.6921 0.0000
vt 0.8097 0.6921 0.0000
vt 0.8084 0.6965 0.0000
vt 0.8084 0.6921 0.0000
vt 0.8039 0.6965 0.0000
vt 0.8031 0.6921 0.0000
vt 0.4016 0.1042 0.0000
vt 0.3549 0.1220 0.0000
vt 0.3660 0.1552 0.0000
vt 0.4016 0.1463 0.0000
vt 0.4016 0.1884 0.0000
vt 0.3660 0.1884 0.0000
vt 0.0200 0.2726 0.0000
vt 0.0625 0.2548 0.0000
vt 0.0556 0.2216 0.0000
vt 0.0200 0.2305 0.0000
vt 0.0200 0.1884 0.0000
vt 0.0641 0.1884 0.0000
vt 0.7137 0.8273 0.0000
vt 0.7137 0.9199 0.0000
vt 0.6295 0.8777 0.0000
vt 0.6295 0.8273 0.0000
vt 0.5874 0.8273 0.0000
vt 0.5874 0.8777 0.0000
vt 0.5453 0.9154 0.0000
vt 0.5453 0.8273 0.0000
vt 0.3769 0.9179 0.0000
vt 0.3769 0.8273 0.0000
vt 0.7137 0.4015 0.0000
vt 0.6838 0.4867 0.0000
vt 0.6295 0.4519 0.0000
vt 0.6295 0.4015 0.0000
vt 0.5874 0.4015 0.0000
vt 0.5874 0.4519 0.0000
vt 0.5453 0.4519 0.0000
vt 0.5453 0.4015 0.0000
vt 0.3769 0.4519 0.0000
vt 0.3769 0.4015 0.0000
vt 0.4648 0.3293 0.0000
vt 0.4648 0.3343 0.0000
vt 0.4609 0.3343 0.0000
vt 0.4609 0.3293 0.0000
vt 0.4588 0.3293 0.0000
vt 0.4589 0.3343 0.0000
vt 0.4570 0.3340 0.0000
vt 0.4565 0.3309 0.0000
vt 0.4462 0.3343 0.0000
vt 0.4462 0.3293 0.0000
vt 0.9397 0.5549 0.0000
vt 0.9397 0.5732 0.0000
vt 0.9109 0.5732 0.0000
vt 0.9109 0.5549 0.0000
vt 0.8965 0.5549 0.0000
vt 0.8965 0.5732 0.0000
vt 0.8821 0.5732 0.0000
vt 0.8821 0.5549 0.0000
vt 0.7584 0.8801 0.0000
vt 0.7608 0.8811 0.0000
vt 0.7608 0.8832 0.0000
vt 0.7584 0.8827 0.0000
vt 0.8039 0.6999 0.0000
vt 0.8057 0.6999 0.0000
vt 0.8070 0.6999 0.0000
vt 0.8084 0.6999 0.0000
vt 0.8136 0.6999 0.0000
vt 0.7584 0.8840 0.0000
vt 0.7608 0.8843 0.0000
vt 0.7583 0.8906 0.0000
vt 0.7584 0.8880 0.0000
vt 0.7608 0.8875 0.0000
vt 0.7608 0.8896 0.0000
vt 0.7584 0.8867 0.0000
vt 0.7584 0.8853 0.0000
vt 0.7608 0.8853 0.0000
vt 0.7608 0.8864 0.0000
vt 0.8031 0.5549 0.0000
vt 0.8244 0.5732 0.0000
vt 0.2972 0.9217 0.0000
vt 0.2972 0.9744 0.0000
vt 0.2468 0.9529 0.0000
vt 0.2468 0.9110 0.0000
vt 0.2983 0.2697 0.0000
vt 0.3515 0.2860 0.0000
vt 0.2273 0.2834 0.0000
vt 0.1778 0.4017 0.0000
vt 0.2143 0.4149 0.0000
vt 0.1786 0.4556 0.0000
vt 0.1452 0.4435 0.0000
vt 0.2444 0.4257 0.0000
vt 0.2055 0.4653 0.0000
vt 0.3174 0.4520 0.0000
vt 0.2777 0.4743 0.0000
vt 0.0923 0.2441 0.0000
vt 0.0923 0.2997 0.0000
vt 0.0854 0.2162 0.0000
vt 0.9800 0.0797 0.0000
vt 0.9800 0.1129 0.0000
vt 0.9296 0.1129 0.0000
vt 0.9296 0.0851 0.0000
vt 0.0938 0.1606 0.0000
vt 0.0938 0.1884 0.0000
vt 0.9800 0.1461 0.0000
vt 0.9800 0.1793 0.0000
vt 0.9340 0.1686 0.0000
vt 0.9296 0.1407 0.0000
vt 0.0854 0.0866 0.0000
vt 0.0854 0.1328 0.0000
vt 0.4462 0.0668 0.0000
vt 0.5202 0.0434 0.0000
vt 0.5574 0.0845 0.0000
vt 0.4884 0.1017 0.0000
vt 0.5572 0.0317 0.0000
vt 0.5913 0.0738 0.0000
vt 0.5942 0.0200 0.0000
vt 0.6251 0.0630 0.0000
vt 0.2983 0.0945 0.0000
vt 0.2273 0.0945 0.0000
vt 0.3434 0.0772 0.0000
vt 0.2972 0.7225 0.0000
vt 0.2972 0.7889 0.0000
vt 0.2468 0.7997 0.0000
vt 0.2468 0.7441 0.0000
vt 0.2972 0.8221 0.0000
vt 0.2468 0.8275 0.0000
vt 0.2972 0.8553 0.0000
vt 0.2468 0.8553 0.0000
vt 0.2972 0.8885 0.0000
vt 0.2468 0.8832 0.0000
vt 0.1877 0.9332 0.0000
vt 0.1877 0.8998 0.0000
vt 0.0284 0.4015 0.0000
vt 0.0785 0.4195 0.0000
vt 0.0747 0.4765 0.0000
vt 0.0200 0.4613 0.0000
vt 0.1294 0.4918 0.0000
vt 0.1918 0.2997 0.0000
vt 0.1894 0.2600 0.0000
vt 0.2259 0.2611 0.0000
vt 0.1632 0.2997 0.0000
vt 0.1666 0.2813 0.0000
vt 0.1210 0.2813 0.0000
vt 0.1210 0.2242 0.0000
vt 0.1350 0.2063 0.0000
vt 0.1350 0.1884 0.0000
vt 0.1210 0.1705 0.0000
vt 0.1210 0.1526 0.0000
vt 0.1210 0.1168 0.0000
vt 0.1563 0.0866 0.0000
vt 0.1666 0.1168 0.0000
vt 0.1918 0.0772 0.0000
vt 0.1894 0.1168 0.0000
vt 0.2259 0.1169 0.0000
vt 0.6928 0.0416 0.0000
vt 0.6943 0.0988 0.0000
vt 0.6391 0.1119 0.0000
vt 0.7358 0.0280 0.0000
vt 0.7354 0.0901 0.0000
vt 0.1877 0.8109 0.0000
vt 0.1877 0.7664 0.0000
vt 0.1877 0.8331 0.0000
vt 0.1877 0.8553 0.0000
vt 0.1877 0.8776 0.0000
vt 0.1392 0.9158 0.0000
vt 0.1392 0.8911 0.0000
vt 0.0729 0.5283 0.0000
vt 0.0288 0.5160 0.0000
vt 0.1169 0.5406 0.0000
vt 0.1688 0.4898 0.0000
vt 0.1545 0.5279 0.0000
vt 0.1909 0.4959 0.0000
vt 0.1722 0.5328 0.0000
vt 0.2403 0.4933 0.0000
vt 0.2077 0.5427 0.0000
vt 0.9150 0.0200 0.0000
vt 0.9150 0.0771 0.0000
vt 0.8574 0.0841 0.0000
vt 0.8574 0.0340 0.0000
vt 0.8991 0.0950 0.0000
vt 0.8574 0.0985 0.0000
vt 0.8991 0.1129 0.0000
vt 0.8574 0.1129 0.0000
vt 0.8991 0.1308 0.0000
vt 0.8574 0.1273 0.0000
vt 0.9035 0.1487 0.0000
vt 0.8574 0.1417 0.0000
vt 0.9035 0.1845 0.0000
vt 0.8574 0.1706 0.0000
vt 0.5317 0.1200 0.0000
vt 0.5775 0.1136 0.0000
vt 0.5946 0.1512 0.0000
vt 0.5588 0.1597 0.0000
vt 0.5997 0.1083 0.0000
vt 0.6125 0.1470 0.0000
vt 0.6496 0.1612 0.0000
vt 0.6941 0.1506 0.0000
vt 0.7386 0.1401 0.0000
vt 0.1392 0.8196 0.0000
vt 0.1392 0.7838 0.0000
vt 0.1392 0.8374 0.0000
vt 0.1392 0.8553 0.0000
vt 0.1392 0.8732 0.0000
vt 0.9083 0.8561 0.0000
vt 0.9083 0.8705 0.0000
vt 0.9083 0.8849 0.0000
vt 0.9083 0.8993 0.0000
vt 0.9083 0.9137 0.0000
vt 0.9083 0.9425 0.0000
vt 0.6744 0.2846 0.0000
vt 0.6705 0.2833 0.0000
vt 0.6787 0.2838 0.0000
vt 0.6820 0.2830 0.0000
vt 0.0200 0.8523 0.0000
vt 0.0200 0.8496 0.0000
vt 0.0200 0.8536 0.0000
vt 0.0200 0.8549 0.0000
vt 0.0200 0.8562 0.0000
vt 0.0200 0.8575 0.0000
vt 0.0200 0.8594 0.0000
vt 0.0830 0.6620 0.0000
vt 0.0798 0.6611 0.0000
vt 0.0873 0.6630 0.0000
vt 0.0913 0.6619 0.0000
vt 0.9083 0.8273 0.0000
vt 0.8448 0.4015 0.0000
vt 0.8949 0.4015 0.0000
vt 0.8283 0.4734 0.0000
vt 0.8214 0.4734 0.0000
vt 0.1863 0.6140 0.0000
vt 0.1815 0.6126 0.0000
vt 0.7832 0.1076 0.0000
vt 0.7832 0.1006 0.0000
vt 0.7832 0.1099 0.0000
vt 0.7832 0.1109 0.0000
vt 0.7832 0.1132 0.0000
vt 0.7832 0.1153 0.0000
vt 0.7832 0.1192 0.0000
vt 0.5822 0.2306 0.0000
vt 0.5773 0.2317 0.0000
vt 0.7583 0.4015 0.0000
vt 0.7872 0.4015 0.0000
vt 0.8136 0.4734 0.0000
vt 0.8097 0.4734 0.0000
vt 0.8016 0.4015 0.0000
vt 0.8155 0.4734 0.0000
vt 0.8160 0.4015 0.0000
vt 0.8175 0.4734 0.0000
vt 0.8304 0.4015 0.0000
vt 0.8195 0.4734 0.0000
# 330 texture coords

g Box001
usemtl wire_177027088
s 2
f 1/1/1 2/2/2 3/3/2 4/4/3 
s off
f 5/5/4 6/6/4 7/7/4 8/8/4 
f 9/9/5 10/10/5 11/11/5 12/12/5 
f 13/13/4 14/14/4 15/15/4 16/16/4 
f 17/17/6 18/18/6 19/19/6 20/20/6 
f 21/21/7 22/22/7 23/23/7 24/24/7 
f 25/25/8 26/26/8 27/27/8 28/28/8 
f 29/29/9 30/30/9 31/31/9 32/32/9 
f 33/33/10 34/34/10 35/35/10 36/36/10 
s 2
f 37/37/11 38/38/12 39/39/13 40/40/14 
f 41/41/15 42/42/15 43/43/16 44/44/16 
f 45/45/17 46/46/2 47/47/18 48/48/17 
s off
f 49/49/19 50/50/19 35/51/19 51/52/19 
f 52/53/20 34/54/20 11/11/20 10/10/20 
f 12/12/21 53/55/21 54/56/21 9/9/21 
f 55/57/22 56/58/22 27/59/22 57/60/22 
f 57/60/4 27/59/4 26/61/4 58/62/4 
f 20/20/23 59/63/23 60/64/23 17/17/23 
f 61/65/8 59/66/8 20/67/8 62/68/8 
f 63/69/8 19/70/8 26/26/8 25/25/8 
f 56/71/8 64/72/8 28/28/8 27/27/8 
f 65/73/10 53/74/10 12/75/10 66/76/10 
f 66/76/24 12/75/24 11/77/24 67/78/24 
f 50/79/25 68/80/25 36/36/25 35/35/25 
s 2
f 69/81/26 70/82/27 47/47/18 71/83/28 
f 72/84/1 46/46/2 73/85/2 74/86/1 
f 75/87/29 76/88/30 4/4/3 3/3/2 
s off
f 54/56/31 53/55/31 23/89/31 77/90/31 
f 78/91/32 22/92/32 79/93/32 80/94/32 
f 8/8/33 56/58/33 55/57/33 5/5/33 
f 60/64/34 59/63/34 31/95/34 81/96/34 
f 82/97/4 30/98/4 83/99/4 84/100/4 
f 16/16/35 50/50/35 49/49/35 13/13/35 
f 64/101/36 56/102/36 8/103/36 85/104/36 
f 86/105/7 7/106/7 79/107/7 87/108/7 
f 53/109/7 65/110/7 24/24/7 23/23/7 
f 68/111/37 50/112/37 16/113/37 88/114/37 
f 89/115/37 15/116/37 83/117/37 90/118/37 
f 59/119/37 61/120/37 32/32/37 31/31/37 
s 2
f 91/121/17 92/122/17 93/123/38 94/124/39 
f 95/125/40 96/126/41 97/127/42 98/128/43 
f 99/129/44 100/130/45 40/40/14 39/39/13 
f 101/131/15 102/132/15 103/133/15 104/134/15 
f 105/135/15 106/136/15 107/137/15 108/138/15 
f 76/139/30 109/140/46 110/141/47 4/142/3 
f 111/143/17 75/87/29 3/3/2 112/144/17 
f 113/145/17 2/2/2 73/85/2 114/146/17 
f 70/82/27 115/147/17 48/48/17 47/47/18 
s off
f 14/14/4 84/100/4 83/99/4 15/15/4 
f 87/108/36 79/107/36 22/22/36 21/21/36 
s 2
f 114/146/17 73/85/2 46/46/2 45/45/17 
f 71/83/28 47/47/18 46/46/2 72/84/1 
s off
f 77/90/4 23/89/4 22/92/4 78/91/4 
f 88/114/37 16/113/37 15/116/37 89/115/37 
s 2
f 94/124/39 93/123/38 96/126/41 95/125/40 
f 104/134/15 103/133/15 106/136/15 105/135/15 
f 74/86/1 73/85/2 2/2/2 1/1/1 
s off
f 6/6/48 80/94/48 79/93/48 7/7/48 
f 90/118/37 83/117/37 30/30/37 29/29/37 
s 2
f 98/128/43 97/127/42 38/38/12 37/37/11 
f 108/138/15 107/137/15 42/42/15 41/41/15 
s off
f 81/96/49 31/95/49 30/98/49 82/97/49 
f 85/104/7 8/103/7 7/106/7 86/105/7 
s 2
f 112/144/17 3/3/2 2/2/2 113/145/17 
s off
f 18/18/4 58/62/4 26/61/4 19/19/4 
f 67/78/10 11/77/10 34/34/10 33/33/10 
s 2
f 1/148/1 4/142/3 110/141/47 116/149/50 
s off
f 51/52/4 35/51/4 34/54/4 52/53/4 
f 62/68/51 20/67/51 19/70/51 63/69/51 
s 2
f 69/150/26 71/151/28 117/152/52 118/153/53 
f 72/154/1 74/155/1 119/156/50 120/157/50 
f 121/158/16 44/44/16 43/43/16 122/159/15 
f 71/151/28 72/154/1 120/157/50 117/152/52 
f 74/155/1 1/148/1 116/149/50 119/156/50 
s off
f 5/160/54 55/161/54 123/162/54 124/163/54 
f 55/57/55 57/60/55 125/164/55 123/165/55 
f 57/60/56 58/62/56 126/166/56 125/164/56 
f 58/167/57 18/168/57 127/169/57 126/170/57 
f 18/168/58 17/171/58 128/172/58 127/169/58 
f 17/171/59 60/173/59 129/174/59 128/172/59 
f 60/64/60 81/96/60 130/175/60 129/176/60 
f 81/96/61 82/97/61 131/177/61 130/175/61 
f 82/178/62 84/179/62 132/180/62 131/181/62 
f 84/100/63 14/14/63 133/182/63 132/183/63 
f 14/184/64 13/185/64 134/186/64 133/187/64 
f 13/13/65 49/49/65 135/188/65 134/189/65 
f 49/190/66 51/191/66 136/192/66 135/193/66 
f 51/191/67 52/194/67 137/195/67 136/192/67 
f 52/194/68 10/196/68 138/197/68 137/195/68 
f 10/10/69 9/9/69 139/198/69 138/199/69 
f 9/9/70 54/56/70 140/200/70 139/198/70 
f 54/201/71 77/202/71 141/203/71 140/204/71 
f 77/202/72 78/205/72 142/206/72 141/203/72 
f 78/205/73 80/207/73 143/208/73 142/206/73 
f 80/207/74 6/209/74 144/210/74 143/208/74 
f 6/209/75 5/160/75 124/163/75 144/210/75 
f 124/163/76 123/162/76 145/211/76 146/212/76 
f 123/213/77 125/214/77 147/215/77 145/216/77 
f 125/214/78 126/170/78 148/217/78 147/215/78 
f 126/166/79 127/218/79 149/219/79 148/220/79 
f 127/218/80 128/221/80 150/222/80 149/219/80 
f 128/221/81 129/176/81 151/223/81 150/222/81 
f 129/176/82 130/175/82 152/224/82 151/223/82 
f 130/175/83 131/177/83 153/225/83 152/224/83 
f 131/177/84 132/183/84 154/226/84 153/225/84 
f 132/183/85 133/182/85 155/227/85 154/226/85 
f 133/182/86 134/189/86 156/228/86 155/227/86 
f 134/189/87 135/188/87 157/229/87 156/228/87 
f 135/188/88 136/230/88 158/231/88 157/229/88 
f 136/230/89 137/232/89 159/233/89 158/231/89 
f 137/232/90 138/199/90 160/234/90 159/233/90 
f 138/197/91 139/235/91 161/236/91 160/237/91 
f 139/235/92 140/238/92 162/239/92 161/236/92 
f 140/204/93 141/203/93 163/240/93 162/241/93 
f 141/203/94 142/206/94 164/242/94 163/240/94 
f 142/206/95 143/208/95 165/243/95 164/242/95 
f 143/208/96 144/210/96 166/244/96 165/243/96 
f 144/210/97 124/163/97 146/212/97 166/244/97 
f 146/212/98 145/211/98 167/245/98 168/246/98 
f 145/216/99 147/215/99 169/247/99 167/248/99 
f 147/215/100 148/217/100 170/249/100 169/247/100 
f 148/217/101 149/250/101 122/251/101 170/249/101 
f 149/250/102 150/252/102 121/253/102 122/251/102 
f 150/252/103 151/254/103 171/255/103 121/253/103 
f 151/256/104 152/257/104 172/258/104 171/259/104 
f 152/257/105 153/260/105 173/261/105 172/258/105 
f 153/260/106 154/262/106 174/263/106 173/261/106 
f 154/262/107 155/264/107 175/265/107 174/263/107 
f 155/264/108 156/266/108 176/267/108 175/265/108 
f 156/266/109 157/268/109 177/269/109 176/267/109 
f 157/270/110 158/271/110 101/272/110 177/273/110 
f 158/271/111 159/274/111 102/275/111 101/272/111 
f 159/274/112 160/237/112 178/276/112 102/275/112 
f 160/237/113 161/236/113 179/277/113 178/276/113 
f 161/236/114 162/239/114 180/278/114 179/277/114 
f 162/241/115 163/240/115 181/279/115 180/280/115 
f 163/240/116 164/242/116 182/281/116 181/279/116 
f 164/242/117 165/243/117 183/282/117 182/281/117 
f 165/243/118 166/244/118 184/283/118 183/282/118 
f 166/244/119 146/212/119 168/246/119 184/283/119 
f 43/284/120 42/285/120 116/149/120 110/141/120 
f 42/285/120 107/286/120 119/156/120 116/149/120 
f 107/286/120 106/287/120 120/157/120 119/156/120 
f 106/287/120 103/288/120 117/152/120 120/157/120 
f 103/288/120 102/289/120 118/153/120 117/152/120 
f 102/275/121 178/276/121 69/290/121 118/291/121 
f 178/276/122 179/277/122 70/292/122 69/290/122 
f 179/277/123 180/278/123 115/293/123 70/292/123 
f 180/280/124 181/279/124 48/294/124 115/295/124 
f 181/279/124 182/281/124 45/296/124 48/294/124 
f 182/281/125 183/282/125 114/297/125 45/296/125 
f 183/282/125 184/283/125 113/298/125 114/297/125 
f 184/283/125 168/246/125 112/299/125 113/298/125 
f 168/246/126 167/245/126 111/300/126 112/299/126 
f 167/248/127 169/247/127 75/301/127 111/302/127 
f 169/247/128 170/249/128 76/303/128 75/301/128 
f 170/249/129 122/251/129 109/304/129 76/303/129 
f 122/305/120 43/284/120 110/141/120 109/140/120 
f 44/306/130 121/307/130 99/308/130 39/309/130 
f 121/253/131 171/255/131 100/310/131 99/311/131 
f 171/259/132 172/258/132 40/312/132 100/313/132 
f 172/258/133 173/261/133 37/314/133 40/312/133 
f 173/261/134 174/263/134 98/315/134 37/314/134 
f 174/263/135 175/265/135 95/316/135 98/315/135 
f 175/265/136 176/267/136 94/317/136 95/316/136 
f 176/267/136 177/269/136 91/318/136 94/317/136 
f 177/273/137 101/272/137 92/319/137 91/320/137 
f 101/321/130 104/322/130 93/323/130 92/324/130 
f 104/322/130 105/325/130 96/326/130 93/323/130 
f 105/325/138 108/327/138 97/328/138 96/326/138 
f 108/327/139 41/329/139 38/330/139 97/328/139 
f 41/329/140 44/306/140 39/309/140 38/330/140 
# 172 polygons

