# 3ds Max Wavefront OBJ Exporter v0.97b - (c)2007 guruware
# File Created: 08.07.2017 01:33:48

mtllib Tree_Two_OBJ.mtl

#
# object Box001
#

v  -5.6338 0.3738 1.1223
v  -5.6338 0.3738 -3.8814
v  -0.0133 0.1894 -4.2082
v  -0.0133 0.1894 1.4492
v  -2.4268 -0.9252 5.2151
v  -2.4268 -0.4188 5.4513
v  -3.7101 -0.4254 5.3658
v  -3.7101 -0.8555 5.1653
v  3.8999 -0.5733 -1.9657
v  4.1143 -0.1137 -1.9657
v  4.1143 -0.1137 -0.7934
v  3.8999 -0.5733 -0.7934
v  -2.9238 -0.5194 -7.9390
v  -2.9238 -0.1364 -8.1176
v  -1.7811 -0.1305 -8.1937
v  -1.7811 -0.5815 -7.9834
v  -9.1179 -1.0944 0.3820
v  -9.5989 -0.5212 0.3820
v  -9.5989 -0.5212 -1.4193
v  -9.1179 -1.0944 -1.4193
v  -1.3191 2.7206 0.1348
v  -4.4373 15.1139 -2.5368
v  -7.6790 15.0645 -2.6243
v  -4.3280 2.6219 -0.0402
v  -4.4373 15.1139 -5.5921
v  -1.3191 2.7206 -2.8938
v  -7.6790 15.0645 -5.5046
v  -4.3280 2.6219 -2.7188
v  -1.1894 0.6767 3.1605
v  -4.7026 0.8675 3.0241
v  -1.1894 2.0631 3.8070
v  -4.7026 2.0450 3.5731
v  1.8433 0.8718 -2.7602
v  1.8433 0.8718 0.0012
v  2.3481 1.9544 -2.7602
v  2.3481 1.9544 0.0012
v  -4.2678 1.0026 -5.8740
v  -1.6242 0.8590 -5.9767
v  -4.2678 1.8886 -6.2871
v  -1.6242 1.9022 -6.4631
v  -7.3930 0.9961 -0.0693
v  -7.3930 0.9961 -2.6898
v  -8.0927 1.8300 -0.0693
v  -8.0927 1.8300 -2.6898
v  -4.8198 26.9462 -1.5157
v  -7.1575 26.9462 -2.3666
v  -4.0651 26.9462 -3.5893
v  -6.4028 26.9462 -4.4402
v  -1.8119 42.6258 -0.7678
v  -6.3038 43.7930 -3.7669
v  -0.1845 44.0636 -4.6784
v  -5.3508 44.4580 -7.1907
v  -2.2139 72.5803 3.0109
v  5.6660 70.1269 2.2883
v  -0.4554 73.7768 -5.0195
v  9.1703 62.9457 2.9481
v  6.7842 70.4917 -5.5152
v  -2.8290 71.8899 -12.6206
v  11.2532 55.8667 2.0380
v  11.5397 61.5298 -6.2099
v  4.4615 65.2887 -14.0360
v  -6.8611 65.2606 -15.6719
v  10.5261 49.6907 -2.2044
v  8.7053 49.9127 -9.0155
v  5.1940 50.4929 -12.9987
v  1.1171 53.6255 -17.8168
v  -4.7458 58.0846 -17.8601
v  -5.0632 69.4172 5.5772
v  -10.6661 70.1624 -0.2720
v  -10.3699 66.0536 6.9784
v  -13.1137 65.8712 -9.3428
v  -17.6330 63.5182 -0.2186
v  -15.5437 57.5788 8.1023
v  -12.2017 56.5559 -14.8507
v  -15.5698 51.7258 -8.1478
v  -15.7741 52.5906 -1.6738
v  -14.3849 51.2296 4.3988
v  0.4034 67.2722 8.2205
v  -5.4656 57.3630 12.4876
v  5.3125 56.5161 11.0508
v  -9.1891 49.2634 6.3130
v  5.6962 47.9837 2.8561
# 82 vertices

vn -0.0328 -0.9995 -0.0000
vn -0.0581 -0.4219 0.9048
vn 0.9063 -0.4226 -0.0000
vn -0.0581 -0.4219 -0.9048
vn -0.7660 -0.6428 -0.0000
vn -0.0575 0.1894 0.9802
vn -0.0280 0.0698 0.9972
vn -0.0532 0.0535 0.9971
vn -0.0631 0.1866 0.9804
vn 0.9944 0.1053 -0.0000
vn 0.9933 0.1138 0.0187
vn 0.9698 0.2440 -0.0000
vn -0.0280 -0.0582 -0.9979
vn -0.0033 -0.0683 -0.9977
vn -0.0447 -0.2287 -0.9725
vn -0.0489 -0.2308 -0.9718
vn -0.9931 -0.1174 -0.0000
vn -0.9950 -0.0970 -0.0218
vn -0.9656 -0.2601 -0.0000
vn -0.0527 -0.9646 0.2583
vn 0.9213 0.3394 0.1898
vn -0.0281 0.9857 0.1661
vn -0.9238 0.3699 0.0988
vn 0.3450 -0.9386 -0.0000
vn 0.2599 0.3804 -0.8875
vn 0.2045 0.9789 -0.0000
vn 0.2599 0.3804 0.8875
vn -0.0543 -0.9450 -0.3227
vn -0.8767 0.4209 -0.2328
vn -0.0325 0.9769 -0.2112
vn 0.8633 0.3897 -0.3207
vn -0.3335 -0.9427 -0.0000
vn -0.2106 0.3810 0.9003
vn -0.2058 0.9786 -0.0000
vn -0.2106 0.3810 -0.9003
vn -0.0184 -0.7831 -0.6216
vn 0.8989 -0.1851 0.3970
vn -0.0575 0.5711 0.8188
vn -0.9373 -0.1473 0.3159
vn -0.5749 -0.8182 -0.0000
vn 0.2771 -0.1292 -0.9521
vn 0.7604 0.6494 -0.0000
vn 0.2771 -0.1292 0.9521
vn -0.0214 -0.8114 0.5841
vn -0.8820 -0.1992 -0.4272
vn -0.0538 0.6497 -0.7583
vn 0.9979 -0.0272 -0.0584
vn 0.7713 -0.6364 -0.0000
vn 0.1279 0.1073 0.9860
vn -0.8420 0.5394 -0.0000
vn -0.3296 -0.2766 -0.9027
vn -0.2909 -0.0192 0.9566
vn -0.3420 -0.0054 0.9397
vn 0.9559 -0.0039 0.2937
vn 0.9397 0.0009 0.3420
vn 0.2833 0.1394 -0.9488
vn 0.3383 0.1467 -0.9295
vn -0.9494 0.1185 -0.2907
vn -0.9317 0.1304 -0.3391
vn -0.4800 0.0745 0.8741
vn 0.9269 -0.1913 0.3230
vn 0.3970 -0.1568 -0.9043
vn -0.9554 0.0174 -0.2947
vn 0.3081 0.9288 0.2059
vn 0.8835 0.4447 0.1474
vn 0.4168 0.9032 0.1020
vn 0.3710 0.8676 -0.3312
vn 0.9457 0.2518 0.2057
vn 0.8774 0.4534 0.1569
vn 0.7608 0.4406 -0.4765
vn 0.5014 0.6709 -0.5463
vn 0.1333 0.3463 -0.9286
vn 0.9647 0.0622 -0.2559
vn 0.9714 -0.2103 -0.1106
vn 0.7483 -0.0225 -0.6629
vn 0.7391 -0.0106 -0.6735
vn 0.7608 -0.0078 -0.6489
vn 0.1370 0.2697 -0.9531
vn 0.2757 0.3538 -0.8938
vn -0.7702 0.6335 -0.0743
vn -0.3769 0.9196 -0.1106
vn -0.1905 0.9342 0.3015
vn -0.3819 0.7973 0.4674
vn -0.5394 0.6000 -0.5908
vn -0.5455 0.8049 -0.2336
vn -0.6826 0.7145 -0.1538
vn -0.6303 0.6641 0.4021
vn -0.6932 0.4929 0.5259
vn -0.3973 0.1585 -0.9039
vn -0.6534 0.3369 -0.6780
vn -0.9202 0.1285 -0.3698
vn -0.9016 0.1215 -0.4152
vn -0.9860 -0.1665 -0.0089
vn -0.9766 -0.1815 0.1156
vn -0.9510 -0.2657 0.1580
vn 0.2276 0.4816 0.8463
vn -0.1578 0.5815 0.7981
vn 0.0962 0.8609 0.4996
vn 0.6049 0.3604 0.7101
vn -0.3691 0.3400 0.8650
vn -0.1532 0.4660 0.8714
vn 0.1497 0.3149 0.9372
vn 0.6128 0.4505 0.6493
vn 0.8278 0.1750 0.5330
vn -0.4605 -0.5085 0.7276
vn -0.3638 -0.4531 0.8138
vn 0.1460 -0.6413 0.7533
vn 0.0478 -0.6614 0.7485
vn 0.1408 -0.6825 0.7172
vn 0.7263 -0.4589 0.5118
vn 0.7169 -0.4501 0.5324
vn 0.2409 -0.9658 -0.0959
vn 0.5952 -0.8022 -0.0472
vn 0.5510 -0.8345 0.0041
vn 0.3437 -0.8374 -0.4249
vn -0.4372 -0.8370 0.3291
vn 0.1896 -0.8324 -0.5207
vn 0.1148 -0.7856 -0.6079
vn -0.3043 -0.9420 -0.1415
vn -0.6379 -0.7386 0.2182
vn -0.6693 -0.7389 0.0776
vn -0.5336 -0.7900 -0.3020
vn -0.3937 -0.6405 -0.6594
vn -0.2982 -0.6254 -0.7211
vn -0.2795 -0.3760 -0.8835
# 125 vertex normals

vt 0.8350 0.8618 0.0000
vt 0.8350 0.8145 0.0000
vt 0.8881 0.8114 0.0000
vt 0.8881 0.8648 0.0000
vt 0.0781 0.3997 0.0000
vt 0.0781 0.4045 0.0000
vt 0.0659 0.4044 0.0000
vt 0.0659 0.4003 0.0000
vt 0.0770 0.4197 0.0000
vt 0.0770 0.4240 0.0000
vt 0.0659 0.4240 0.0000
vt 0.0659 0.4197 0.0000
vt 0.0767 0.4399 0.0000
vt 0.0767 0.4435 0.0000
vt 0.0659 0.4435 0.0000
vt 0.0659 0.4393 0.0000
vt 0.6764 0.2487 0.0000
vt 0.6764 0.2541 0.0000
vt 0.6594 0.2541 0.0000
vt 0.6594 0.2487 0.0000
vt 0.0801 0.2659 0.0000
vt 0.0506 0.3829 0.0000
vt 0.0200 0.3825 0.0000
vt 0.0516 0.2650 0.0000
vt 0.0741 0.6270 0.0000
vt 0.0452 0.6270 0.0000
vt 0.0200 0.5099 0.0000
vt 0.0486 0.5099 0.0000
vt 0.0801 0.1375 0.0000
vt 0.0494 0.1380 0.0000
vt 0.0200 0.0209 0.0000
vt 0.0484 0.0200 0.0000
vt 0.1225 0.4214 0.0000
vt 0.0953 0.4214 0.0000
vt 0.1216 0.3039 0.0000
vt 0.1469 0.3039 0.0000
vt 0.3058 0.9562 0.0000
vt 0.3589 0.9593 0.0000
vt 0.3478 0.9754 0.0000
vt 0.3146 0.9741 0.0000
vt 0.9087 0.1021 0.0000
vt 0.9211 0.1260 0.0000
vt 0.8865 0.1198 0.0000
vt 0.8926 0.1067 0.0000
vt 0.1941 0.3386 0.0000
vt 0.1657 0.3402 0.0000
vt 0.1621 0.3061 0.0000
vt 0.1953 0.3039 0.0000
vt 0.1621 0.3767 0.0000
vt 0.1731 0.3555 0.0000
vt 0.1911 0.3601 0.0000
vt 0.1963 0.3713 0.0000
vt 0.3715 0.7415 0.0000
vt 0.3715 0.6881 0.0000
vt 0.3890 0.7017 0.0000
vt 0.3890 0.7278 0.0000
vt 0.9514 0.7541 0.0000
vt 0.9637 0.7780 0.0000
vt 0.9291 0.7707 0.0000
vt 0.9338 0.7605 0.0000
vt 0.4960 0.9746 0.0000
vt 0.4960 0.9460 0.0000
vt 0.5306 0.9473 0.0000
vt 0.5306 0.9734 0.0000
vt 0.4174 0.9698 0.0000
vt 0.4298 0.9459 0.0000
vt 0.4473 0.9523 0.0000
vt 0.4521 0.9625 0.0000
vt 0.0731 0.9513 0.0000
vt 0.0200 0.9544 0.0000
vt 0.0329 0.9355 0.0000
vt 0.0579 0.9346 0.0000
vt 0.9131 0.3480 0.0000
vt 0.9240 0.3692 0.0000
vt 0.8903 0.3623 0.0000
vt 0.8942 0.3539 0.0000
vt 0.8848 0.6710 0.0000
vt 0.9132 0.6727 0.0000
vt 0.9104 0.7064 0.0000
vt 0.8854 0.7047 0.0000
vt 0.8350 0.9040 0.0000
vt 0.8475 0.8801 0.0000
vt 0.8642 0.8864 0.0000
vt 0.8687 0.8963 0.0000
vt 0.5648 0.7691 0.0000
vt 0.5648 0.8164 0.0000
vt 0.5482 0.8051 0.0000
vt 0.5482 0.7804 0.0000
vt 0.8999 0.2365 0.0000
vt 0.9122 0.2577 0.0000
vt 0.8767 0.2503 0.0000
vt 0.8833 0.2424 0.0000
vt 0.8751 0.3480 0.0000
vt 0.8751 0.3733 0.0000
vt 0.8395 0.3730 0.0000
vt 0.8395 0.3483 0.0000
vt 0.9285 0.6922 0.0000
vt 0.9408 0.6710 0.0000
vt 0.9574 0.6769 0.0000
vt 0.9640 0.6848 0.0000
vt 0.9364 0.1021 0.0000
vt 0.9696 0.1034 0.0000
vt 0.9579 0.1228 0.0000
vt 0.9458 0.1223 0.0000
vt 0.5698 0.8468 0.0000
vt 0.5637 0.8599 0.0000
vt 0.5482 0.8364 0.0000
vt 0.5504 0.8316 0.0000
vt 0.9365 0.8349 0.0000
vt 0.9034 0.8347 0.0000
vt 0.9127 0.8114 0.0000
vt 0.9248 0.8115 0.0000
vt 0.8402 0.9466 0.0000
vt 0.8350 0.9355 0.0000
vt 0.8553 0.9192 0.0000
vt 0.8572 0.9233 0.0000
vt 0.9393 0.3741 0.0000
vt 0.9393 0.3480 0.0000
vt 0.9587 0.3555 0.0000
vt 0.9587 0.3666 0.0000
vt 0.9499 0.7211 0.0000
vt 0.9451 0.7314 0.0000
vt 0.9285 0.7118 0.0000
vt 0.9305 0.7075 0.0000
vt 0.4002 0.9757 0.0000
vt 0.3741 0.9757 0.0000
vt 0.3816 0.9562 0.0000
vt 0.3927 0.9562 0.0000
vt 0.1669 0.4158 0.0000
vt 0.1621 0.4056 0.0000
vt 0.1816 0.3919 0.0000
vt 0.1836 0.3963 0.0000
vt 0.9524 0.2555 0.0000
vt 0.9275 0.2564 0.0000
vt 0.9402 0.2369 0.0000
vt 0.9510 0.2365 0.0000
vt 0.5693 0.8895 0.0000
vt 0.5654 0.8978 0.0000
vt 0.5482 0.8787 0.0000
vt 0.5498 0.8751 0.0000
vt 0.9089 0.9342 0.0000
vt 0.8840 0.9343 0.0000
vt 0.8855 0.9151 0.0000
vt 0.8963 0.9151 0.0000
vt 0.3761 0.8176 0.0000
vt 0.3715 0.8078 0.0000
vt 0.3905 0.7942 0.0000
vt 0.3924 0.7984 0.0000
vt 0.9130 0.8998 0.0000
vt 0.8882 0.8998 0.0000
vt 0.8840 0.8801 0.0000
vt 0.9010 0.8801 0.0000
vt 0.9726 0.8312 0.0000
vt 0.9660 0.8390 0.0000
vt 0.9518 0.8168 0.0000
vt 0.9563 0.8114 0.0000
vt 0.3963 0.7789 0.0000
vt 0.3715 0.7789 0.0000
vt 0.3835 0.7567 0.0000
vt 0.4005 0.7567 0.0000
vt 0.9658 0.3021 0.0000
vt 0.9592 0.2942 0.0000
vt 0.9755 0.2744 0.0000
vt 0.9800 0.2799 0.0000
vt 0.0470 0.4947 0.0000
vt 0.0249 0.4947 0.0000
vt 0.0552 0.7387 0.0000
vt 0.0356 0.7387 0.0000
vt 0.0680 0.2497 0.0000
vt 0.0459 0.2497 0.0000
vt 0.1249 0.5336 0.0000
vt 0.1054 0.5336 0.0000
vt 0.3279 0.6881 0.0000
vt 0.3563 0.8361 0.0000
vt 0.3138 0.8472 0.0000
vt 0.3058 0.6881 0.0000
vt 0.5226 0.7691 0.0000
vt 0.5329 0.9308 0.0000
vt 0.4960 0.9172 0.0000
vt 0.5030 0.7691 0.0000
vt 0.0566 0.7539 0.0000
vt 0.0787 0.7539 0.0000
vt 0.0688 0.9193 0.0000
vt 0.0200 0.9156 0.0000
vt 0.4434 0.6379 0.0000
vt 0.4630 0.6379 0.0000
vt 0.4498 0.7970 0.0000
vt 0.4174 0.8033 0.0000
vt 0.8985 0.3897 0.0000
vt 0.9729 0.3966 0.0000
vt 0.9151 0.4656 0.0000
vt 0.7937 0.5569 0.0000
vt 0.7875 0.4891 0.0000
vt 0.8674 0.5603 0.0000
vt 0.6444 0.8994 0.0000
vt 0.6549 0.9731 0.0000
vt 0.5866 0.9684 0.0000
vt 0.8991 0.1495 0.0000
vt 0.9675 0.1542 0.0000
vt 0.8767 0.2213 0.0000
vt 0.8865 0.0869 0.0000
vt 0.8951 0.0200 0.0000
vt 0.9730 0.0735 0.0000
vt 0.5866 0.5024 0.0000
vt 0.6731 0.4891 0.0000
vt 0.6665 0.5737 0.0000
vt 0.7908 0.1046 0.0000
vt 0.7973 0.0200 0.0000
vt 0.8712 0.0555 0.0000
vt 0.4174 0.4560 0.0000
vt 0.4880 0.3897 0.0000
vt 0.5297 0.4738 0.0000
vt 0.7286 0.4524 0.0000
vt 0.6598 0.3900 0.0000
vt 0.7667 0.3897 0.0000
vt 0.8395 0.3328 0.0000
vt 0.8796 0.2744 0.0000
vt 0.9439 0.2765 0.0000
vt 0.3058 0.2057 0.0000
vt 0.4102 0.1495 0.0000
vt 0.3837 0.2592 0.0000
vt 0.2123 0.8512 0.0000
vt 0.2388 0.7415 0.0000
vt 0.2764 0.7470 0.0000
vt 0.2123 0.4177 0.0000
vt 0.2764 0.3135 0.0000
vt 0.2862 0.4532 0.0000
vt 0.5058 0.7539 0.0000
vt 0.4960 0.6142 0.0000
vt 0.5415 0.6438 0.0000
vt 0.2363 0.1302 0.0000
vt 0.2679 0.0200 0.0000
vt 0.3433 0.1299 0.0000
vt 0.5713 0.5989 0.0000
vt 0.4960 0.4891 0.0000
vt 0.5514 0.5312 0.0000
vt 0.8453 0.7009 0.0000
vt 0.7695 0.7122 0.0000
vt 0.8696 0.6710 0.0000
vt 0.4022 0.3193 0.0000
vt 0.3798 0.3911 0.0000
vt 0.3058 0.2744 0.0000
vt 0.5139 0.3745 0.0000
vt 0.4174 0.3297 0.0000
vt 0.4704 0.2744 0.0000
vt 0.8105 0.9153 0.0000
vt 0.7576 0.9706 0.0000
vt 0.7604 0.9021 0.0000
vt 0.7688 0.2278 0.0000
vt 0.7775 0.1495 0.0000
vt 0.8614 0.1567 0.0000
vt 0.1924 0.8143 0.0000
vt 0.0953 0.7834 0.0000
vt 0.1184 0.6977 0.0000
vt 0.6524 0.6999 0.0000
vt 0.6292 0.7855 0.0000
vt 0.5866 0.6994 0.0000
vt 0.6944 0.2334 0.0000
vt 0.6594 0.1495 0.0000
vt 0.7536 0.1815 0.0000
vt 0.6247 0.3664 0.0000
vt 0.5291 0.3389 0.0000
vt 0.6036 0.2744 0.0000
vt 0.2323 0.9486 0.0000
vt 0.2123 0.8809 0.0000
vt 0.2827 0.8664 0.0000
vt 0.6400 0.3618 0.0000
vt 0.6817 0.2744 0.0000
vt 0.7240 0.3679 0.0000
vt 0.4695 0.6226 0.0000
vt 0.4174 0.5347 0.0000
vt 0.4808 0.4891 0.0000
vt 0.0953 0.6825 0.0000
vt 0.1066 0.5489 0.0000
vt 0.1815 0.6602 0.0000
vt 0.2872 0.7263 0.0000
vt 0.2123 0.6149 0.0000
vt 0.2735 0.6230 0.0000
vt 0.4819 0.1232 0.0000
vt 0.4681 0.0200 0.0000
vt 0.5604 0.0671 0.0000
vt 0.8642 0.6489 0.0000
vt 0.7718 0.6018 0.0000
vt 0.8292 0.5889 0.0000
vt 0.8394 0.7839 0.0000
vt 0.8125 0.7541 0.0000
vt 0.9138 0.7608 0.0000
vt 0.1454 0.9769 0.0000
vt 0.0953 0.9451 0.0000
vt 0.1970 0.9566 0.0000
vt 0.7819 0.4147 0.0000
vt 0.8336 0.3897 0.0000
vt 0.8833 0.4458 0.0000
vt 0.7212 0.7388 0.0000
vt 0.6715 0.7119 0.0000
vt 0.7543 0.6710 0.0000
vt 0.7292 0.1021 0.0000
vt 0.6803 0.0220 0.0000
vt 0.7755 0.0200 0.0000
vt 0.5424 0.2316 0.0000
vt 0.5887 0.1495 0.0000
vt 0.6442 0.2431 0.0000
vt 0.4808 0.2511 0.0000
vt 0.4254 0.1575 0.0000
vt 0.5272 0.1495 0.0000
vt 0.3585 0.1338 0.0000
vt 0.3739 0.0200 0.0000
vt 0.4529 0.0880 0.0000
vt 0.7480 0.6558 0.0000
vt 0.6715 0.5951 0.0000
vt 0.7566 0.5889 0.0000
vt 0.6715 0.9763 0.0000
vt 0.6824 0.9164 0.0000
vt 0.7315 0.8978 0.0000
vt 0.3058 0.9409 0.0000
vt 0.3658 0.8624 0.0000
vt 0.4010 0.9389 0.0000
vt 0.3409 0.5455 0.0000
vt 0.3058 0.4690 0.0000
vt 0.3755 0.4063 0.0000
vt 0.0953 0.2887 0.0000
vt 0.1298 0.1495 0.0000
vt 0.1971 0.2807 0.0000
vt 0.2796 0.5996 0.0000
vt 0.2123 0.4685 0.0000
vt 0.2832 0.5191 0.0000
vt 0.7392 0.3550 0.0000
vt 0.8166 0.2744 0.0000
vt 0.8243 0.3489 0.0000
vt 0.6241 0.8841 0.0000
vt 0.5866 0.8008 0.0000
vt 0.6521 0.8188 0.0000
vt 0.4631 0.8828 0.0000
vt 0.4174 0.9306 0.0000
vt 0.4459 0.8185 0.0000
vt 0.7424 0.8826 0.0000
vt 0.6715 0.8484 0.0000
vt 0.6868 0.8114 0.0000
vt 0.3613 0.6728 0.0000
vt 0.3058 0.6017 0.0000
vt 0.3897 0.5607 0.0000
vt 0.7723 0.5267 0.0000
vt 0.6883 0.5676 0.0000
vt 0.7391 0.4891 0.0000
vt 0.6562 0.6173 0.0000
vt 0.5866 0.6841 0.0000
vt 0.6138 0.5889 0.0000
vt 0.5937 0.4683 0.0000
vt 0.5449 0.4446 0.0000
vt 0.6445 0.3897 0.0000
vt 0.1949 0.8750 0.0000
vt 0.0953 0.9299 0.0000
vt 0.1564 0.8295 0.0000
vt 0.8198 0.8868 0.0000
vt 0.7707 0.8688 0.0000
vt 0.7576 0.8114 0.0000
vt 0.6379 0.1152 0.0000
vt 0.5757 0.0398 0.0000
vt 0.6651 0.0200 0.0000
vt 0.9721 0.5304 0.0000
vt 0.8826 0.5502 0.0000
vt 0.8846 0.4891 0.0000
vt 0.9669 0.6303 0.0000
vt 0.8794 0.5889 0.0000
vt 0.9759 0.5980 0.0000
vt 0.2123 0.1495 0.0000
vt 0.2905 0.2389 0.0000
vt 0.2308 0.2983 0.0000
vt 0.1564 0.0200 0.0000
vt 0.2211 0.1343 0.0000
vt 0.0953 0.1066 0.0000
vt 0.6715 0.7541 0.0000
vt 0.7973 0.7817 0.0000
vt 0.7268 0.7962 0.0000
# 374 texture coords

g Box001
usemtl wire_135059008
s 2
f 1/1/1 2/2/1 3/3/1 4/4/1 
s 8
f 5/5/2 6/6/2 7/7/2 8/8/2 
s 16
f 9/9/3 10/10/3 11/11/3 12/12/3 
s 32
f 13/13/4 14/14/4 15/15/4 16/16/4 
s 64
f 17/17/5 18/18/5 19/19/5 20/20/5 
s 8
f 21/21/6 22/22/7 23/23/8 24/24/9 
s 16
f 25/25/10 22/26/11 21/27/12 26/28/12 
s 32
f 27/29/13 25/30/14 26/31/15 28/32/16 
s 64
f 23/33/17 27/34/18 28/35/19 24/36/19 
s off
f 1/37/20 4/38/20 29/39/20 30/40/20 
f 4/41/21 21/42/21 31/43/21 29/44/21 
f 21/45/22 24/46/22 32/47/22 31/48/22 
f 24/49/23 1/50/23 30/51/23 32/52/23 
f 4/53/24 3/54/24 33/55/24 34/56/24 
f 3/57/25 26/58/25 35/59/25 33/60/25 
f 26/61/26 21/62/26 36/63/26 35/64/26 
f 21/65/27 4/66/27 34/67/27 36/68/27 
f 3/69/28 2/70/28 37/71/28 38/72/28 
f 2/73/29 28/74/29 39/75/29 37/76/29 
f 28/77/30 26/78/30 40/79/30 39/80/30 
f 26/81/31 3/82/31 38/83/31 40/84/31 
f 2/85/32 1/86/32 41/87/32 42/88/32 
f 1/89/33 24/90/33 43/91/33 41/92/33 
f 24/93/34 28/94/34 44/95/34 43/96/34 
f 28/97/35 2/98/35 42/99/35 44/100/35 
f 30/101/36 29/102/36 5/103/36 8/104/36 
f 29/105/37 31/106/37 6/107/37 5/108/37 
f 31/109/38 32/110/38 7/111/38 6/112/38 
f 32/113/39 30/114/39 8/115/39 7/116/39 
f 34/117/40 33/118/40 9/119/40 12/120/40 
f 33/121/41 35/122/41 10/123/41 9/124/41 
f 35/125/42 36/126/42 11/127/42 10/128/42 
f 36/129/43 34/130/43 12/131/43 11/132/43 
f 38/133/44 37/134/44 13/135/44 16/136/44 
f 37/137/45 39/138/45 14/139/45 13/140/45 
f 39/141/46 40/142/46 15/143/46 14/144/46 
f 40/145/47 38/146/47 16/147/47 15/148/47 
f 42/149/48 41/150/48 17/151/48 20/152/48 
f 41/153/49 43/154/49 18/155/49 17/156/49 
f 43/157/50 44/158/50 19/159/50 18/160/50 
f 44/161/51 42/162/51 20/163/51 19/164/51 
s 8
f 45/165/52 46/166/53 23/23/8 22/22/7 
s 16
f 47/167/54 45/168/55 22/26/11 25/25/10 
s 32
f 48/169/56 47/170/57 25/30/14 27/29/13 
s 64
f 46/171/58 48/172/59 27/34/18 23/33/17 
s off
f 45/173/60 49/174/60 50/175/60 46/176/60 
f 47/177/61 51/178/61 49/179/61 45/180/61 
f 47/181/62 48/182/62 52/183/62 51/184/62 
f 48/185/63 46/186/63 50/187/63 52/188/63 
f 53/189/64 54/190/64 55/191/64 
f 54/192/65 56/193/65 57/194/65 
f 54/195/66 57/196/66 55/197/66 
f 55/198/67 57/199/67 58/200/67 
f 56/201/68 59/202/68 60/203/68 
f 56/204/69 60/205/69 57/206/69 
f 57/207/70 60/208/70 61/209/70 
f 57/210/71 61/211/71 58/212/71 
f 58/213/72 61/214/72 62/215/72 
f 59/216/73 63/217/73 64/218/73 
f 59/219/74 64/220/74 60/221/74 
f 60/222/75 64/223/75 65/224/75 
f 60/225/76 65/226/76 61/227/76 
f 61/228/77 65/229/77 66/230/77 
f 61/231/78 66/232/78 62/233/78 
f 62/234/79 66/235/79 67/236/79 
f 53/237/80 55/238/80 68/239/80 
f 55/240/81 58/241/81 69/242/81 
f 55/243/82 69/244/82 68/245/82 
f 68/246/83 69/247/83 70/248/83 
f 58/249/84 62/250/84 71/251/84 
f 58/252/85 71/253/85 69/254/85 
f 69/255/86 71/256/86 72/257/86 
f 69/258/87 72/259/87 70/260/87 
f 70/261/88 72/262/88 73/263/88 
f 62/264/89 67/265/89 74/266/89 
f 62/267/90 74/268/90 71/269/90 
f 71/270/91 74/271/91 75/272/91 
f 71/273/92 75/274/92 72/275/92 
f 72/276/93 75/277/93 76/278/93 
f 72/279/94 76/280/94 73/281/94 
f 73/282/95 76/283/95 77/284/95 
f 53/285/96 68/286/96 54/287/96 
f 68/288/97 70/289/97 78/290/97 
f 68/291/98 78/292/98 54/293/98 
f 54/294/99 78/295/99 56/296/99 
f 70/297/100 73/298/100 79/299/100 
f 70/300/101 79/301/101 78/302/101 
f 78/303/102 79/304/102 80/305/102 
f 78/306/103 80/307/103 56/308/103 
f 56/309/104 80/310/104 59/311/104 
f 73/312/105 77/313/105 81/314/105 
f 73/315/106 81/316/106 79/317/106 
f 79/318/107 81/319/107 49/320/107 
f 79/321/108 49/322/108 80/323/108 
f 80/324/109 49/325/109 82/326/109 
f 80/327/110 82/328/110 59/329/110 
f 59/330/111 82/331/111 63/332/111 
f 63/333/112 82/334/112 64/335/112 
f 82/336/113 49/337/113 51/338/113 
f 82/339/114 51/340/114 64/341/114 
f 64/342/115 51/343/115 65/344/115 
f 49/345/116 81/346/116 50/347/116 
f 51/348/117 52/349/117 65/350/117 
f 65/351/118 52/352/118 66/353/118 
f 81/354/119 77/355/119 76/356/119 
f 81/357/120 76/358/120 50/359/120 
f 50/360/121 76/361/121 75/362/121 
f 50/363/122 75/364/122 52/365/122 
f 52/366/123 75/367/123 74/368/123 
f 52/369/124 74/370/124 66/371/124 
f 66/372/125 74/373/125 67/374/125 
# 49 polygons - 62 triangles

